<svg width="120" height="120" viewBox="0 0 120 120" xmlns="http://www.w3.org/2000/svg" role="img" aria-labelledby="title desc">
  <title id="title">Join Discussions Icon</title>
  <desc id="desc">An advanced illustration representing joining discussions with dynamic speech bubbles, interactive elements, and modern design aesthetics.</desc>
  
  <!-- Definitions for Gradients, Filters, and Symbols -->
  <defs>
    <!-- Animated Gradient for Speech Bubbles -->
    <linearGradient id="bubbleGrad1" x1="0%" y1="0%" x2="100%" y2="100%">
      <stop offset="0%" style="stop-color:#6c63ff; stop-opacity:1">
        <animate attributeName="stop-color" values="#6c63ff;#a0abff;#6c63ff" dur="4s" repeatCount="indefinite" />
      </stop>
      <stop offset="100%" style="stop-color:#7f90ff; stop-opacity:1">
        <animate attributeName="stop-color" values="#7f90ff;#6c63ff;#7f90ff" dur="4s" repeatCount="indefinite" />
      </stop>
    </linearGradient>

    <linearGradient id="bubbleGrad2" x1="0%" y1="0%" x2="100%" y2="100%">
      <stop offset="0%" style="stop-color:#7f90ff; stop-opacity:1" />
      <stop offset="100%" style="stop-color:#6c63ff; stop-opacity:1" />
    </linearGradient>
    
    <!-- Glow Effect -->
    <filter id="glow" height="300%">
      <feMorphology in="SourceAlpha" operator="dilate" radius="2" result="thick" />
      <feGaussianBlur in="thick" stdDeviation="3" result="blurred" />
      <feMerge>
        <feMergeNode in="blurred" />
        <feMergeNode in="blurred" />
        <feMergeNode in="SourceGraphic" />
      </feMerge>
    </filter>
    
    <!-- Symbol for Text Lines -->
    <symbol id="textLine" viewBox="0 0 10 2">
      <rect width="10" height="2" fill="#ffffff">
        <animate attributeName="width" values="10;6;10" dur="2s" repeatCount="indefinite" />
        <animate attributeName="opacity" values="0.8;0.4;0.8" dur="2s" repeatCount="indefinite" />
      </rect>
    </symbol>
    
    <!-- Symbol for Avatar -->
    <symbol id="avatar" viewBox="0 0 24 24">
      <circle cx="12" cy="8" r="4" fill="#ffffff" />
      <path d="M6,20 C6,16 18,16 18,20" stroke="#ffffff" stroke-width="2" fill="none" stroke-linecap="round" />
    </symbol>
  </defs>
  
  <!-- Background Circle -->
  <circle cx="60" cy="60" r="55" fill="none" stroke="#ffffff" stroke-opacity="0.1" stroke-width="2" />
  
  <!-- Speech Bubbles -->
  <g filter="url(#glow)">
    <!-- First Speech Bubble -->
    <path d="M20 40 H70 A10 10 0 0 1 80 50 V70 A10 10 0 0 1 70 80 H30 L20 90 V50 A10 10 0 0 1 30 40 Z" 
          fill="url(#bubbleGrad1)" opacity="0.9">
      <!-- Scale and Pulse Animation -->
      <animateTransform attributeName="transform" type="scale" values="1;1.05;1" dur="4s" repeatCount="indefinite" />
      <animate attributeName="opacity" values="0.9;1;0.9" dur="4s" repeatCount="indefinite" />
    </path>
    
    <!-- Second Speech Bubble -->
    <path d="M50 60 H90 A10 10 0 0 1 100 70 V90 A10 10 0 0 1 90 100 H60 L50 110 V70 A10 10 0 0 1 60 60 Z" 
          fill="url(#bubbleGrad2)" opacity="0.9">
      <!-- Scale and Pulse Animation -->
      <animateTransform attributeName="transform" type="scale" values="1;1.05;1" dur="4s" repeatCount="indefinite" />
      <animate attributeName="opacity" values="0.9;1;0.9" dur="4s" repeatCount="indefinite" />
    </path>
  </g>
  
  <!-- Text Lines and Avatars -->
  <g>
    <!-- Text Lines in First Bubble -->
    <use href="#textLine" x="35" y="55" />
    <use href="#textLine" x="35" y="60" />
    <use href="#textLine" x="35" y="65" />
    
    <!-- Text Lines in Second Bubble -->
    <use href="#textLine" x="65" y="75" />
    <use href="#textLine" x="65" y="80" />
    <use href="#textLine" x="65" y="85" />
    
    <!-- Avatars -->
    <use href="#avatar" x="30" y="50" width="24" height="24" />
    <use href="#avatar" x="70" y="80" width="24" height="24" />
  </g>
  
  <!-- Decorative Dotted Circles -->
  <g opacity="0.2">
    <circle cx="60" cy="60" r="50" stroke="#ffffff" stroke-width="1" fill="none" stroke-dasharray="5,5" />
    <circle cx="60" cy="60" r="60" stroke="#ffffff" stroke-width="1" fill="none" stroke-dasharray="5,5" />
  </g>
</svg>
